<svg width="251" height="63" viewBox="0 0 251 63" fill="none" xmlns="http://www.w3.org/2000/svg">
<path fill-rule="evenodd" clip-rule="evenodd" d="M250.665 38.2471C250.719 37.8672 250.773 37.4873 250.936 36.9446C250.012 36.5104 249.252 35.9677 248.056 35.4793C246.589 34.9366 246.045 35.1537 245.773 36.3476C245.339 38.0843 244.904 39.821 244.469 41.5577C244.143 42.9145 243.599 44.217 243.491 45.5738C243.219 48.6672 242.295 51.5979 241.262 54.5828C240.991 55.3969 238.436 55.7768 237.947 55.7768C231.317 55.8853 229.578 54.2029 229.578 50.7838C229.578 48.1788 230.556 45.8451 232.458 43.62C232.73 43.3486 232.784 42.9687 232.839 42.5888C232.512 42.5346 232.186 42.4803 231.86 42.3175C231.154 41.9919 230.556 41.5577 229.795 41.3406C229.36 41.2863 228.925 41.2321 228.491 41.1778C226.643 40.9607 224.904 41.2863 223.436 42.0461C223.002 42.3175 223.273 43.2944 223.219 43.9456C223.219 43.9999 223.219 44.0542 223.219 44.1084C223.002 46.3878 222.784 48.6672 222.512 50.9466C222.349 52.3034 222.132 53.7145 222.023 55.0713C221.969 55.9939 222.078 56.9708 223.328 57.5135C225.393 58.3275 227.512 59.5758 229.849 59.7929C235.012 60.227 239.958 60.0642 244.686 59.3044C246.099 59.0873 247.458 58.1647 248.708 57.5677C250.447 56.6994 250.284 55.1798 250.284 53.8773C250.339 51.5979 250.012 49.3185 250.067 47.0391C250.175 44.1627 250.447 41.1778 250.665 38.2471Z" fill="black"/>
<path fill-rule="evenodd" clip-rule="evenodd" d="M213.599 42.1004C214.034 40.8521 213.762 39.4953 213.219 38.3014C211.643 36.2391 209.795 37.5416 208.11 37.9215C206.697 38.2471 205.284 38.6813 203.871 39.0612C203.545 39.1697 203.165 39.1697 202.675 39.2782C202.784 37.2702 202.838 35.4793 203.056 33.634C203.11 33.2541 203.545 32.7657 203.98 32.6029C206.751 31.3546 209.523 30.2149 212.295 28.9667C212.621 28.8039 212.893 28.5868 213.382 28.2612C213.98 27.23 213.654 25.7647 213.056 24.8421C213.001 24.7878 212.893 24.7878 212.838 24.7335C211.262 23.3767 209.795 23.5396 208.11 24.625C206.86 25.4391 205.338 25.9275 203.762 26.6873C203.817 25.9818 203.817 25.4933 203.871 25.0592C204.034 23.2139 204.36 21.3687 204.36 19.5235C204.36 18.8722 204.469 18.7637 205.012 18.6551C206.697 18.2752 208.328 17.9496 209.958 17.4069C210.665 17.1898 211.588 16.6471 211.806 16.0501C212.349 14.6391 210.067 11.6541 208.545 11.8169C206.425 12.034 204.306 12.5767 202.186 12.9566C200.23 13.3365 198.273 13.825 196.317 14.0421C195.121 14.2049 194.578 14.4762 195.012 15.7245C195.501 17.0813 196.208 18.3295 197.023 19.5235C197.349 20.0119 198.165 20.5004 198.708 20.5004C199.415 20.4461 199.523 20.6632 199.523 21.2059C199.469 23.3225 199.415 25.4933 199.251 27.6099C199.251 27.9355 198.762 28.4783 198.436 28.5325C197.458 28.6411 196.425 28.6411 195.447 28.5868C194.469 28.5325 194.197 28.9124 194.632 29.7808C195.067 30.5948 195.447 31.4089 195.936 32.223C196.534 33.1456 197.023 34.3938 197.893 34.7737C199.251 35.425 199.143 36.2933 199.088 37.3245C199.034 38.3014 198.925 39.2783 198.925 40.2551C198.925 41.0149 198.599 41.3948 197.947 41.6119C196.697 41.9918 195.447 42.426 194.088 42.8602C195.175 45.0853 196.262 47.3647 197.404 49.5898C197.784 50.3496 198.328 49.8069 198.762 49.5355C200.393 48.6129 201.969 47.5275 203.654 46.822C206.697 45.5195 209.849 44.434 212.947 43.1858C213.219 43.0772 213.436 42.7516 213.762 42.3717C213.545 42.2632 213.545 42.2089 213.599 42.1004Z" fill="black"/>
<path fill-rule="evenodd" clip-rule="evenodd" d="M240.447 4.65317C239.904 4.27327 239.469 3.73055 238.871 3.4592C236.534 2.3195 234.197 1.12553 231.752 0.148642C230.502 -0.339801 229.632 0.419998 229.523 1.77678C229.469 2.48231 229.523 3.24211 229.36 3.94764C229.306 4.27326 228.98 4.70744 228.654 4.76171C227.73 5.03306 226.806 5.25015 225.828 5.30442C224.197 5.35869 222.458 5.57578 220.936 5.19588C219.088 4.76171 217.349 3.67628 215.556 2.97075C213.599 2.26522 212.784 3.13357 213.056 5.19588C213.382 8.12653 213.545 11.0572 213.654 13.9878C213.708 16.0501 213.491 18.1667 213.382 20.229C213.273 21.9115 213.165 23.6481 213.056 25.3848C213.11 25.3848 213.273 35.9135 213.273 38.8984C213.002 40.7436 212.73 41.9376 213.762 43.0773C214.904 43.1858 215.393 44.4341 215.773 45.3024C216.262 46.2793 216.806 46.5507 217.621 46.3878C218.925 46.1165 220.175 45.7366 221.48 45.3024C223.817 44.5426 226.099 43.6743 228.491 42.8059C228.762 44.3255 228.98 45.628 229.197 46.9848C230.067 47.4733 230.773 48.2331 231.697 48.4502C231.697 48.3959 231.697 48.3959 231.697 48.3416C233.654 47.5275 235.556 46.6592 237.512 45.8994C239.088 45.2481 239.686 43.8914 239.958 42.3718C240.121 41.1235 239.904 39.821 239.958 38.5728C240.067 34.7738 240.175 30.9205 240.447 27.1215C240.665 24.028 241.154 20.9346 241.317 17.7868C241.534 14.2592 241.48 10.7316 241.643 7.20392C241.643 6.11849 241.317 5.30442 240.447 4.65317ZM228.491 39.9295C226.425 40.2009 224.523 40.418 222.675 40.5808C222.404 40.5808 222.132 40.2009 221.806 39.9838V39.8753C221.425 36.3476 221.86 36.3476 225.393 35.5878C226.371 35.3708 227.404 35.1537 228.436 34.9366C228.491 36.1848 228.545 37.216 228.545 38.2471C228.599 38.8441 228.545 39.4411 228.491 39.9295ZM228.817 29.5637C228.817 29.8351 228.328 30.2692 227.947 30.3778C226.208 30.812 224.469 31.1919 222.295 31.626C222.458 29.2381 222.621 27.1215 222.675 24.9507C222.73 24.0823 223.056 23.6481 223.871 23.4853C225.61 23.1597 227.349 22.8341 229.197 22.4542C229.143 24.8964 229.034 27.23 228.817 29.5637ZM229.415 15.7788C229.415 16.1044 229.088 16.5929 228.817 16.7014C227.349 17.1898 225.828 17.624 224.306 18.0039C223.925 18.1125 223.491 18.0039 223.002 18.0039C223.002 16.1044 223.002 14.3135 223.002 12.5768C223.002 11.8713 222.73 11.1115 222.893 10.4602C223.056 9.91748 223.599 9.26623 224.143 9.15769C225.665 8.83206 227.186 8.83206 228.708 8.50643C229.469 8.34362 229.632 8.61497 229.578 9.21196C229.523 11.4371 229.523 13.6079 229.415 15.7788Z" fill="black"/>
<path fill-rule="evenodd" clip-rule="evenodd" d="M21.3167 41.3405C19.8493 41.5033 18.4906 41.6662 17.1319 41.7747C16.208 41.829 15.2841 41.829 14.3602 41.7204C13.3276 41.5576 12.458 41.0692 12.1319 40.038C11.8602 39.2782 11.4798 38.5184 11.045 37.5958C14.6319 37.3787 18.1102 37.0531 21.6428 36.8903C21.6972 35.6963 21.8059 35.4792 21.8059 34.4481C21.8059 32.7114 21.7515 30.5405 21.6972 28.8038C21.6972 27.7727 21.6972 27.5013 20.8819 27.5556C18.7624 27.6641 15.9363 28.3697 13.8167 28.5325C13.3819 28.5868 13.0015 29.0209 12.7841 29.4008C12.295 30.2149 8.70803 37.8129 7.18629 40.6893C6.26238 42.3717 5.50151 44.1626 4.68629 45.8993C4.03412 47.4189 3.49064 47.5817 2.18629 46.5506C1.9689 46.3878 1.75151 46.1164 1.53412 46.0621C-0.259361 45.628 -0.150667 44.3255 0.229768 43.1315C1.75151 37.9757 3.38194 32.8199 4.95803 27.7184C5.8276 24.842 6.80586 21.9657 7.56673 19.035C8.00151 17.2441 8.00151 15.3988 8.3276 13.6079C8.76238 11.3285 9.36021 9.04908 9.79499 6.76968C9.90369 6.1727 9.68629 5.52144 9.41455 4.97873C8.81673 3.83903 8.97977 3.35058 10.3385 3.1335C13.0559 2.7536 15.5559 3.5134 17.8385 4.92446C20.7189 6.66114 20.9906 7.47521 19.8493 11.0028C18.8167 14.1506 17.7841 17.2983 16.6428 20.4461C16.208 21.5858 15.7733 22.5626 14.958 23.9194C17.4037 23.9194 19.6319 23.1596 21.7515 23.0511C21.9689 23.0511 22.1319 22.3456 22.1319 21.9114C22.2406 19.632 22.1319 18.2209 22.1863 15.9415C22.295 13.5536 22.458 11.1114 22.5667 8.66918C25.0124 8.23501 26.6972 9.59179 28.545 10.4059C30.6646 11.3827 31.2624 12.9566 30.9906 15.0189C30.6646 17.7325 30.5559 19.4149 30.2841 22.1827C33.6537 22.0199 36.5341 20.8802 39.795 21.043C42.0233 21.1516 37.5124 26.633 35.3385 26.5787C34.1428 26.5245 32.3493 26.8501 31.1537 26.9586C30.2841 27.0129 30.4472 27.827 30.4472 28.641C30.4472 31.0832 30.3928 32.8199 30.4472 35.2621C30.4472 35.3707 30.5559 35.4792 30.6646 35.642C31.9689 35.5335 33.2732 35.3707 34.5776 35.425C35.1211 35.425 35.7733 35.7506 36.0993 36.1305C37.0776 37.3787 35.9906 39.441 34.4146 39.6038C33.1102 39.7124 31.7515 39.8752 30.2841 39.9837C30.1211 43.1315 29.958 46.9305 29.795 50.0239C29.7406 50.8923 29.8493 51.7064 29.8493 52.5747C30.7189 52.5204 31.5885 52.4119 32.4037 52.4662C33.1102 52.5204 35.5559 52.5747 36.0993 52.9546C37.8385 54.04 38.0559 56.1566 36.045 56.8079C33.9254 57.5134 29.6319 58.5446 27.4037 58.8702C24.6863 59.2501 21.9146 59.4672 19.1972 59.7385C17.295 59.9013 15.4472 60.0099 13.545 60.0641C13.2189 60.0641 12.8385 59.7928 12.6211 59.5757C11.7515 58.5446 10.8819 57.5677 10.1754 56.428C9.5776 55.3968 10.0124 54.9084 11.2624 54.7456C14.1428 54.3657 16.9689 53.9858 19.8493 53.5516C20.2298 53.4973 20.7732 53.0631 20.7732 52.7918C20.9906 49.427 21.045 45.4109 21.208 42.0461C21.3167 41.829 21.3167 41.7204 21.3167 41.3405Z" fill="black"/>
<path fill-rule="evenodd" clip-rule="evenodd" d="M72.6754 20.7174C73.9254 20.3375 74.9037 20.0119 75.8819 19.6863C77.6754 19.1435 79.4689 18.5466 81.4254 19.3606C82.6211 19.8491 84.2515 21.4229 84.2515 22.3998C84.2515 23.0511 82.3493 24.842 81.3167 25.0591C78.9254 25.4933 76.5885 25.8732 74.1972 26.3616C73.8711 26.4159 73.3819 27.0129 73.3819 27.3928C73.3819 29.4551 73.4906 31.5174 73.545 33.5797C73.5993 34.5566 73.5993 35.4792 73.6537 36.5104C75.0667 36.5646 76.7515 36.4018 78.3819 36.6732C79.8493 36.8903 81.2624 37.433 82.6211 37.9214C82.8928 38.03 83.1645 38.7355 83.1102 39.1697C82.8928 41.6662 82.5667 44.1626 82.3493 46.6591C82.1319 50.0239 82.0232 53.3888 81.8602 56.7536C81.8059 57.5677 80.1754 59.1958 79.0885 59.2501C77.6754 59.3043 76.2624 59.3043 74.8493 59.2501C73.6537 59.2501 73.1646 58.5988 73.2732 57.4049C73.3819 56.3194 73.4363 55.234 73.4906 53.9315C72.7298 54.1486 72.1319 54.3114 71.5341 54.4199C70.3385 54.6913 69.1972 54.9084 68.0015 55.1797C67.0776 55.3968 66.208 55.6139 65.9363 56.7536C65.6646 57.7305 64.9037 58.1104 63.8711 57.9476C61.3711 57.5134 58.8711 56.8621 58.1645 54.04C57.8385 52.7375 58.0015 51.2722 58.0559 49.9154C58.1102 48.1244 58.3819 46.3335 58.3276 44.5968C58.2732 43.1315 57.8928 41.7204 57.8385 40.2551C57.8385 39.8752 58.4363 39.2239 58.8167 39.1154C61.3711 38.6812 63.8711 38.7355 65.6102 41.1234C65.8276 41.3948 66.208 41.5576 66.4254 41.7747C68.6537 41.0149 70.8276 40.2551 72.8385 39.5496C72.8928 38.7355 72.9472 38.1928 72.9472 37.5415C72.8928 37.5415 72.6754 37.3787 72.5124 37.4873C70.5015 38.5727 68.8167 38.3013 67.2406 36.7817C66.3711 35.9677 66.2624 34.9908 66.4798 33.9054C66.6428 33.037 67.0232 32.1687 67.1319 31.2461C67.2406 30.3777 67.0232 29.5094 66.9689 28.641C63.2189 27.8812 60.5015 29.5094 59.3602 32.9827C58.5993 35.3164 57.4037 37.5958 56.7515 39.9837C56.1537 42.2089 55.0124 44.4883 54.6319 46.7677C54.3602 48.4501 53.7624 49.7526 53.4906 51.435C53.4363 51.9234 53.4906 52.4662 53.4906 52.9546C53.6537 55.2883 53.8167 57.6762 53.9798 59.8471C51.2624 61.7466 49.6319 60.227 47.8928 58.2732C46.7515 57.0249 44.2515 54.8541 42.8928 53.8772C42.0232 53.2802 41.8602 52.6832 42.295 51.7606C43.8167 48.6672 45.7189 47.039 47.1863 43.8913C48.5993 40.8521 51.8059 37.7043 53.1102 34.6109C53.545 33.5254 52.9472 32.6571 51.9145 32.6571C49.8493 32.5486 48.6537 31.4631 47.7298 29.7807C46.3711 27.23 44.1428 26.4159 41.5885 25.3847C41.3167 25.2762 41.045 25.1134 40.5558 24.842C41.0993 24.4621 41.4254 24.1908 41.8602 24.028C44.2515 23.0511 46.5341 21.5858 49.3059 21.9657C49.9037 22.0199 50.6102 22.3998 50.9906 22.834C52.9472 25.0048 54.8493 26.5787 56.7515 28.8038C57.0776 29.1837 57.295 29.6722 57.5667 30.2149C58.3276 29.7807 59.1428 29.3466 60.1754 28.8038C59.5232 28.1526 59.0885 27.6641 58.5993 27.1214C57.5667 26.036 57.7841 24.7878 59.1972 24.4079C60.6645 24.028 62.1863 23.8109 63.708 23.4852C63.9254 23.431 64.1428 23.3767 64.3602 23.3224C67.1319 22.4541 67.2406 22.2913 66.8059 19.3606C66.4798 17.4069 66.208 16.9727 68.8711 16.6471C69.0341 16.6471 69.1428 16.5928 69.3059 16.5928C71.5341 16.2129 72.5124 16.9727 72.6211 19.1978C72.7841 19.4692 72.7298 19.9033 72.6754 20.7174ZM73.3276 45.3566C71.3167 45.7908 69.5776 46.1164 67.8928 46.4963C67.6211 46.5506 67.2406 46.9847 67.2406 47.2561C67.1863 48.9928 67.1863 50.3496 67.2406 52.1948C69.2515 51.8149 70.9906 51.3265 72.5667 51.0551C73.2732 50.9466 73.6537 50.6209 73.5993 49.8611C73.4906 48.1787 73.4363 47.1476 73.3276 45.3566Z" fill="black"/>
<path fill-rule="evenodd" clip-rule="evenodd" d="M162.512 10.6229C161.697 9.86314 160.882 9.04907 160.067 8.28927C159.197 7.4752 158.328 6.66113 157.404 5.9556C156.48 5.30435 155.882 5.46716 155.338 6.55259C155.067 7.0953 154.958 7.69229 154.849 8.07219C151.86 8.18073 147.186 8.01792 144.197 8.12646C144.741 9.97168 145.991 11.7084 146.262 13.2822C146.588 15.236 148.817 16.2129 150.447 16.5928C151.045 16.7556 151.045 16.9727 150.828 17.3526C149.686 19.1978 148.491 21.0973 147.295 22.9425C147.132 23.1596 146.86 23.431 146.643 23.431C144.904 23.4853 143.11 23.431 141.371 23.5395C140.665 23.5938 140.012 23.8652 139.306 24.028C139.469 24.625 139.632 25.2219 139.795 25.8189C139.849 26.036 140.012 26.1988 140.067 26.4159C140.556 27.7727 140.991 28.0983 142.349 28.1526C142.947 28.1526 143.545 28.2611 144.306 28.3697C143.925 29.1837 143.654 29.7807 143.328 30.432C143.056 31.0832 142.512 31.7888 142.512 32.44C142.512 32.6571 142.512 32.8199 142.512 33.037C143.165 32.9827 143.817 32.9285 144.469 32.8742C145.447 32.1144 146.425 31.3546 147.349 30.5405C149.143 28.9667 150.936 27.3928 152.621 25.7647C153.817 24.625 154.849 23.2139 156.045 22.0742C158.599 19.632 160.773 16.8099 162.838 13.8792C163.654 12.631 163.545 11.5998 162.512 10.6229Z" fill="black"/>
<path d="M162.512 10.6229C161.697 9.86314 160.882 9.04907 160.067 8.28927C159.197 7.4752 158.328 6.66113 157.404 5.9556C156.48 5.30435 155.882 5.46716 155.338 6.55259C155.067 7.0953 154.958 7.69229 154.849 8.07219C151.86 8.18073 147.186 8.01792 144.197 8.12646C144.741 9.97168 145.991 11.7084 146.262 13.2822C146.588 15.236 148.817 16.2129 150.447 16.5928C151.045 16.7556 151.045 16.9727 150.828 17.3526C149.686 19.1978 148.491 21.0973 147.295 22.9425C147.132 23.1596 146.86 23.431 146.643 23.431C144.904 23.4853 143.11 23.431 141.371 23.5395C140.665 23.5938 140.012 23.8652 139.306 24.028C139.469 24.625 139.632 25.2219 139.795 25.8189C139.849 26.036 140.012 26.1988 140.067 26.4159C140.556 27.7727 140.991 28.0983 142.349 28.1526C142.947 28.1526 143.545 28.2611 144.306 28.3697C143.925 29.1837 143.654 29.7807 143.328 30.432C143.056 31.0832 142.512 31.7888 142.512 32.44C142.512 32.6571 142.512 32.8199 142.512 33.037C143.165 32.9827 143.817 32.9285 144.469 32.8742C145.447 32.1144 146.425 31.3546 147.349 30.5405C149.143 28.9667 150.936 27.3928 152.621 25.7647C153.817 24.625 154.849 23.2139 156.045 22.0742C158.599 19.632 160.773 16.8099 162.838 13.8792C163.654 12.631 163.545 11.5998 162.512 10.6229Z" stroke="black" stroke-width="0.213" stroke-miterlimit="10"/>
<path fill-rule="evenodd" clip-rule="evenodd" d="M160.936 40.635C159.578 39.8209 158.002 39.3325 156.371 38.6269C156.099 39.6581 155.936 40.4179 155.719 41.1234C155.61 41.449 155.502 41.9375 155.284 41.9918C154.415 42.2088 153.545 42.2631 152.567 42.4259C152.567 41.232 152.567 40.2551 152.675 39.2239C152.73 38.5184 152.73 37.3244 153.056 37.2159C154.034 36.8903 155.284 36.5646 156.208 36.9445C157.512 37.4872 158.762 37.7043 160.121 37.7043C160.338 37.7043 160.719 37.433 160.828 37.1616C161.099 36.5104 161.317 35.8048 161.425 35.045C161.643 33.9596 161.806 32.8742 161.915 31.7887C162.186 29.6179 162.512 27.3928 162.784 25.2219C162.784 25.1676 162.73 25.0591 162.675 25.0048C162.295 22.9425 160.556 22.7797 159.088 22.4541C157.621 22.0742 157.132 22.6712 157.023 24.245C156.969 24.9506 156.643 25.9817 156.262 26.0902C154.904 26.4701 153.708 26.2531 152.295 26.1445C151.425 26.0902 148.545 25.7646 147.73 25.6561C147.784 25.9274 148.925 28.0983 149.034 28.3696C150.067 30.3234 150.447 31.0832 152.512 30.5948C153.436 30.3777 154.523 30.1063 155.447 30.0521C155.773 30.0521 156.317 30.3777 156.317 30.7033C156.371 33.3626 155.936 33.7968 153.491 34.231C152.784 34.3395 152.186 34.3395 151.425 33.9053C150.338 33.2541 148.925 33.1455 147.675 32.9827C147.295 32.9284 146.534 33.4169 146.425 33.8511C146.099 34.8822 145.991 35.9676 145.882 37.1073C145.773 38.247 145.773 39.3325 145.828 40.4722C145.882 41.7204 145.936 43.0229 146.262 44.2712C146.643 45.845 147.567 46.442 149.088 46.2249C151.154 45.8993 153.219 45.5194 155.61 45.0852C155.502 46.0078 155.393 46.9305 155.23 47.8531C154.741 50.4038 154.088 52.7918 151.643 54.2028C150.991 54.5827 149.088 55.3425 148.545 55.9938C147.947 56.6993 149.143 57.1877 149.686 57.0249C151.752 56.4279 154.197 57.5676 156.045 58.1646C156.697 58.3817 157.73 58.5988 158.165 58.2189C158.925 57.5676 159.741 56.5365 159.958 55.5596C160.773 51.5435 161.371 47.4732 162.023 43.4028C162.241 42.2631 161.806 41.1234 160.936 40.635Z" fill="black"/>
<path d="M160.936 40.635C159.578 39.8209 158.002 39.3325 156.371 38.6269C156.099 39.6581 155.936 40.4179 155.719 41.1234C155.61 41.449 155.502 41.9375 155.284 41.9918C154.415 42.2088 153.545 42.2631 152.567 42.4259C152.567 41.232 152.567 40.2551 152.675 39.2239C152.73 38.5184 152.73 37.3244 153.056 37.2159C154.034 36.8903 155.284 36.5646 156.208 36.9445C157.512 37.4872 158.762 37.7043 160.121 37.7043C160.338 37.7043 160.719 37.433 160.828 37.1616C161.099 36.5104 161.317 35.8048 161.425 35.045C161.643 33.9596 161.806 32.8742 161.915 31.7887C162.186 29.6179 162.512 27.3928 162.784 25.2219C162.784 25.1676 162.73 25.0591 162.675 25.0048C162.295 22.9425 160.556 22.7797 159.088 22.4541C157.621 22.0742 157.132 22.6712 157.023 24.245C156.969 24.9506 156.643 25.9817 156.262 26.0902C154.904 26.4701 153.708 26.2531 152.295 26.1445C151.425 26.0902 148.545 25.7646 147.73 25.6561C147.784 25.9274 148.925 28.0983 149.034 28.3696C150.067 30.3234 150.447 31.0832 152.512 30.5948C153.436 30.3777 154.523 30.1063 155.447 30.0521C155.773 30.0521 156.317 30.3777 156.317 30.7033C156.371 33.3626 155.936 33.7968 153.491 34.231C152.784 34.3395 152.186 34.3395 151.425 33.9053C150.338 33.2541 148.925 33.1455 147.675 32.9827C147.295 32.9284 146.534 33.4169 146.425 33.8511C146.099 34.8822 145.991 35.9676 145.882 37.1073C145.773 38.247 145.773 39.3325 145.828 40.4722C145.882 41.7204 145.936 43.0229 146.262 44.2712C146.643 45.845 147.567 46.442 149.088 46.2249C151.154 45.8993 153.219 45.5194 155.61 45.0852C155.502 46.0078 155.393 46.9305 155.23 47.8531C154.741 50.4038 154.088 52.7918 151.643 54.2028C150.991 54.5827 149.088 55.3425 148.545 55.9938C147.947 56.6993 149.143 57.1877 149.686 57.0249C151.752 56.4279 154.197 57.5676 156.045 58.1646C156.697 58.3817 157.73 58.5988 158.165 58.2189C158.925 57.5676 159.741 56.5365 159.958 55.5596C160.773 51.5435 161.371 47.4732 162.023 43.4028C162.241 42.2631 161.806 41.1234 160.936 40.635Z" stroke="black" stroke-width="0.252" stroke-miterlimit="10"/>
<path fill-rule="evenodd" clip-rule="evenodd" d="M91.8602 29.835C92.5667 25.4933 93.2189 21.2601 93.9254 17.027C94.3602 14.4219 94.9037 11.8712 95.3384 9.26615C95.3928 8.83198 95.3384 8.34354 95.3384 7.90937C96.9145 7.14957 97.5667 8.50636 98.4906 9.26615C99.3602 9.97168 100.121 10.7315 100.936 11.4913C101.643 12.0883 102.404 12.6853 103.165 13.2822C105.23 14.9646 104.795 17.1355 104.251 19.2521C103.328 23.0511 100.556 25.8189 98.6537 29.0752C98.545 29.238 98.4906 29.3466 98.3819 29.5094C98.3276 29.5636 98.3276 29.6722 98.2189 29.9978C99.3058 29.835 100.284 29.7265 101.317 29.5636C101.371 29.1295 101.425 28.7496 101.425 28.4239C101.208 26.6873 101.425 26.4159 103.219 26.5787C104.469 26.6873 105.773 26.9043 107.023 26.9043C109.958 26.8501 110.447 28.5868 110.501 30.8661C110.665 34.7194 110.61 38.5727 110.556 42.4802C110.502 44.2169 110.121 45.9536 110.012 47.7445C109.849 50.0782 109.849 52.4662 109.795 54.7998C109.741 55.7767 109.523 56.3194 108.328 56.3194C106.588 56.3194 104.849 56.645 103.165 56.5908C101.643 56.5908 101.154 55.9395 101.317 54.4199C101.48 53.226 101.208 52.5204 99.8493 52.629C98.5993 52.7375 97.3493 52.7375 96.0993 52.846C95.1211 52.9003 94.4145 53.1717 94.3058 54.4199C94.2515 55.1254 93.4906 55.6682 92.5667 55.234C91.6428 54.7998 90.6102 54.4742 89.6863 54.04C88.1102 53.2802 88.3276 51.7063 88.3819 50.4038C88.4363 48.1787 88.871 45.8993 88.9254 43.6742C88.9254 40.3636 88.7623 37.1074 88.5993 33.7968C88.545 32.5486 88.2189 31.3003 88.2189 30.1064C88.2189 29.7265 89.0341 29.0752 89.4145 29.0752C90.2297 29.1295 90.9906 29.5636 91.8602 29.835ZM101.534 44.3254C99.8493 44.434 98.2732 44.5425 96.6971 44.7053C95.9363 44.7596 95.5558 45.3023 95.6645 46.1164C95.7189 46.8762 95.7732 47.636 95.8276 48.5043C96.8058 48.3958 97.7841 48.2873 98.7624 48.1244C101.48 47.5817 101.48 47.5817 101.534 44.3254ZM101.154 39.1697C101.154 37.8672 101.208 36.9988 101.208 36.0762C96.6971 35.5335 95.3928 36.0762 95.8276 39.9837C97.6754 39.7124 99.4145 39.441 101.154 39.1697Z" fill="black"/>
<path fill-rule="evenodd" clip-rule="evenodd" d="M114.849 52.1405C117.73 51.8148 120.23 51.5435 122.73 51.3264C124.686 51.1636 125.502 50.0239 125.991 48.6671C127.675 43.8912 128.056 38.9525 128.165 34.0138C128.273 30.9204 127.621 27.8269 127.349 24.7334C127.295 23.9736 127.241 23.2138 127.186 22.454C127.132 21.1515 126.697 20.9344 125.23 21.2601C122.784 21.8028 120.338 22.1827 117.838 22.6711C117.023 24.5706 116.262 26.6329 115.23 28.5867C114.904 29.1837 113.925 29.5636 113.219 29.9978C113.056 29.8892 112.893 29.8349 112.784 29.7264C113.925 21.2058 114.469 12.6309 115.447 3.94751C116.915 4.05605 119.741 4.43595 120.773 4.65304C123.165 5.19575 123.762 7.42088 122.893 9.646C122.023 11.7626 120.991 13.3907 120.175 15.5073C119.904 16.1586 119.904 16.7013 119.686 17.4611C123.165 16.8641 125.936 16.3757 129.197 15.8329C131.915 15.3988 136.48 17.5154 136.371 20.446C136.262 23.3224 136.806 26.1988 136.969 29.0752C137.023 30.4319 136.752 31.843 136.697 33.1998C136.643 34.2309 136.752 35.2078 136.697 36.239C136.371 41.449 135.502 46.5505 133.708 51.5435C133.11 53.2802 132.186 54.7998 130.719 55.9395C128.762 57.4591 125.719 57.1877 122.838 55.5596C121.099 54.5827 119.197 53.8772 117.349 53.0631C116.588 52.7917 115.882 52.5746 114.849 52.1405Z" fill="black"/>
<path fill-rule="evenodd" clip-rule="evenodd" d="M161.86 12.2511C162.241 11.8712 162.567 11.3285 163.056 11.0028C164.252 10.1888 165.447 9.37469 166.752 8.77771C168.056 8.12645 169.306 8.39781 170.393 9.15761C170.882 9.48324 171.208 9.48324 171.915 8.9948C173.545 7.8551 175.393 6.93248 177.186 5.9556C177.893 5.5757 178.328 5.84706 178.545 6.44404C178.762 7.20384 179.252 7.90937 178.545 8.83198C177.621 10.0802 176.915 11.437 175.991 12.9023C176.588 14.2048 177.132 14.2591 178.654 13.0109C180.338 11.6541 182.295 10.7315 184.36 10.026C184.632 9.91741 185.175 10.1888 185.284 10.4059C185.882 11.4913 186.425 12.5767 186.86 13.7707C187.078 14.3677 186.806 14.9646 186.099 15.3988C184.849 16.1586 183.762 17.027 182.621 17.841C184.034 19.0893 185.175 20.2832 186.534 21.2601C187.512 21.9656 188.654 22.5084 189.849 22.9425C190.991 23.3767 191.915 22.5084 192.893 22.0199C193.11 21.9114 193.328 21.7486 193.491 21.64C193.599 21.6943 193.708 21.7486 193.762 21.8028C193.11 22.834 192.621 23.9194 191.806 24.7878C190.502 26.1445 189.143 27.6641 187.512 28.5325C186.317 29.1837 184.578 29.8893 183.11 28.641C181.425 27.23 179.469 26.1988 177.838 24.7878C176.208 23.3767 174.904 21.5858 173.273 20.1204C171.588 18.6008 169.686 17.244 167.893 15.833C167.132 15.236 166.48 14.5847 165.665 14.0963C164.523 13.445 163.273 12.9566 161.86 12.2511Z" fill="black"/>
<path fill-rule="evenodd" clip-rule="evenodd" d="M187.784 55.5596C185.882 56.3737 183.98 57.0249 182.186 57.6762C180.121 58.2732 178.491 58.5988 176.697 57.839C175.61 57.4048 174.741 56.3737 173.817 55.5053C173.219 54.9626 172.73 54.3656 172.186 53.7687C169.904 55.5596 167.186 57.3506 164.523 58.7074C165.991 56.1023 168.436 53.8229 169.904 51.1636C168.762 50.0782 167.512 48.9928 166.371 47.8531C166.045 47.5275 165.773 47.039 165.719 46.6048C165.719 46.3335 166.262 45.7908 166.48 45.845C168.11 46.2249 169.741 46.7134 171.371 47.1476C171.643 47.2018 172.241 47.2018 172.295 46.9847C172.838 45.845 173.219 44.6511 173.762 43.24C172.893 43.24 172.404 43.4571 171.643 43.5656C170.23 43.6742 168.925 44.3254 167.567 44.2169C166.969 44.1626 166.045 42.8601 165.502 42.3717C165.23 42.0461 165.175 41.5033 164.958 40.9063C166.643 40.7435 168.219 40.3636 169.849 40.2008C171.915 39.9837 174.143 39.4953 176.208 39.6581C177.621 39.7667 179.089 40.9606 180.393 41.6661C181.154 42.1003 180.991 43.4028 180.067 44.6511C178.817 46.2792 177.512 47.8531 176.208 49.5355C176.045 49.7526 175.936 50.2953 176.099 50.4038C177.023 51.2179 177.838 51.8149 179.36 51.9234C181.806 52.1405 188.382 49.6983 190.828 49.1556C191.425 49.0471 193.817 50.0239 193.762 50.8923C193.654 52.0863 188.436 55.1797 187.784 55.5596Z" fill="black"/>
<path fill-rule="evenodd" clip-rule="evenodd" d="M172.947 25.6563C173.328 23.2141 173.382 23.2141 175.991 23.8654C177.458 24.2452 178.98 24.6251 179.306 26.3076C179.469 27.1759 179.252 28.1528 179.197 29.0754C179.143 31.1377 179.034 32.5488 179.034 34.6111C179.034 34.8282 179.741 35.5337 180.175 35.5337C181.48 35.588 182.893 35.4794 184.143 35.5337C185.338 35.588 185.501 36.7277 184.904 37.7045C184.252 38.79 183.219 38.9528 182.186 39.0071C179.904 39.0613 177.567 39.0071 175.284 38.9528C174.197 38.9528 173.708 38.4101 173.545 37.2704C173.328 35.4794 173.11 34.4483 173.056 31.8975C173.056 31.0834 172.512 29.401 171.697 29.2925C170.828 29.1839 170.61 30.3779 170.556 31.1377C170.393 33.2 170.393 32.603 170.23 34.6653C170.121 36.1307 169.36 36.9447 168.002 37.1618C166.643 37.3789 165.284 37.3789 163.871 37.4875C165.012 32.7659 165.828 29.401 165.175 24.7337C166.86 24.2995 167.186 24.3538 168.599 24.3538C169.197 24.4081 170.284 24.2995 170.338 24.5709C170.719 26.0905 171.154 26.0362 172.947 25.6563Z" fill="black"/>
<path fill-rule="evenodd" clip-rule="evenodd" d="M203.001 62.3979C204.415 60.1727 208.001 56.6994 209.958 53.5516C212.241 49.6984 212.621 48.9386 214.252 46.3878C214.686 45.6823 215.121 44.3798 215.991 44.7054C217.349 45.1938 218.219 45.5195 219.578 46.0079C220.991 46.5506 221.208 47.2561 220.556 48.6129C219.578 50.5667 217.893 51.8692 216.317 53.2803C214.306 55.0169 212.295 56.6994 210.23 58.3818C208.817 59.5215 207.349 60.6612 205.882 61.8009C205.447 62.1265 205.067 62.5607 204.578 62.7235C204.197 62.8863 203.708 62.7778 203.273 62.7778C203.11 62.6692 203.056 62.5064 203.001 62.3979Z" fill="black"/>
<path fill-rule="evenodd" clip-rule="evenodd" d="M44.2515 6.55269C45.0124 6.44415 45.7189 6.28133 46.4798 6.22706C49.1428 5.9557 51.5885 6.7155 53.9254 7.74666C56.045 8.66927 56.5885 10.8401 57.3493 12.7396C57.7298 13.7165 58.0559 14.6934 58.4363 15.6703C58.8167 16.81 58.1102 19.0894 57.0232 19.7949C55.9363 20.5547 54.795 20.1748 53.8167 19.5235C52.9472 18.9808 52.0776 18.4381 51.2624 17.8411C49.4689 16.4843 48.5993 14.5306 48.5993 12.414C48.5993 9.97178 47.0776 8.88636 45.3385 7.80093C44.958 7.52957 44.5776 7.31249 44.1428 7.04113C44.1972 6.82404 44.1972 6.66123 44.2515 6.55269Z" fill="black"/>
<path fill-rule="evenodd" clip-rule="evenodd" d="M61.3711 14.2593C65.7189 10.7859 70.1211 7.31255 74.4689 3.78491C76.5341 5.08742 77.7841 6.82411 77.8385 9.1035C77.8928 9.91757 77.1863 11.003 76.4798 11.4914C75.1754 12.4141 73.6537 13.1739 72.1863 13.7708C69.5776 14.8563 66.8059 15.5075 63.9254 15.5075C63.1102 15.5075 62.295 15.0191 61.4798 14.7477L61.3711 14.2593Z" fill="black"/>
<path fill-rule="evenodd" clip-rule="evenodd" d="M124.686 33.3086C125.719 35.9136 124.632 37.9759 122.893 39.7669C121.099 41.6121 120.447 41.6663 118.328 40.5267C118.056 40.4181 117.784 40.201 117.675 39.9297C116.915 38.2473 116.154 36.5648 115.447 34.8824C115.012 33.797 115.61 32.9287 116.86 33.0915C117.893 33.2543 118.925 33.797 119.958 34.0141C120.936 34.2312 121.969 34.5025 122.947 34.4483C123.436 34.394 124.034 33.7427 124.686 33.3086Z" fill="black"/>
</svg>
